<svg width="23" height="22" viewBox="0 0 23 22" fill="none" xmlns="http://www.w3.org/2000/svg">
<g clip-path="url(#clip0_116_141)">
<mask id="mask0_116_141" style="mask-type:luminance" maskUnits="userSpaceOnUse" x="0" y="0" width="22" height="22">
<path d="M0.324707 0H21.9718V21.6471H0.324707V0Z" fill="white"/>
</mask>
<g mask="url(#mask0_116_141)">
<path d="M10.6544 12.6446C8.80109 12.8121 7.07926 13.6729 5.83313 15.055C4.58701 16.4371 3.90842 18.2386 3.93302 20.0993V20.2955C3.93302 20.6543 4.07556 20.9984 4.32929 21.2521C4.58301 21.5059 4.92714 21.6484 5.28596 21.6484C5.64478 21.6484 5.98891 21.5059 6.24264 21.2521C6.49636 20.9984 6.6389 20.6543 6.6389 20.2955V20.0452C6.61905 18.9007 7.02225 17.7892 7.77123 16.9236C8.52021 16.058 9.56229 15.4993 10.6977 15.3545C11.3248 15.2924 11.9579 15.3622 12.5563 15.5595C13.1547 15.7568 13.7053 16.0771 14.1724 16.5C14.6396 16.9228 15.0131 17.4387 15.2689 18.0146C15.5247 18.5904 15.6571 19.2135 15.6576 19.8436V20.2955C15.6576 20.6543 15.8002 20.9984 16.0539 21.2521C16.3076 21.5059 16.6517 21.6484 17.0106 21.6484C17.3694 21.6484 17.7135 21.5059 17.9672 21.2521C18.221 20.9984 18.3635 20.6543 18.3635 20.2955V19.8436C18.362 18.8549 18.1576 17.8771 17.763 16.9706C17.3684 16.0641 16.7919 15.2483 16.0693 14.5736C15.3466 13.8989 14.4932 13.3797 13.5618 13.0481C12.6304 12.7165 11.6409 12.5797 10.6544 12.6459V12.6446ZM11.1483 10.8235C12.5835 10.8235 13.9601 10.2534 14.975 9.23846C15.9899 8.22356 16.56 6.84705 16.56 5.41176C16.56 3.97647 15.9899 2.59997 14.975 1.58507C13.9601 0.570166 12.5835 0 11.1483 0C9.71297 0 8.33646 0.570166 7.32156 1.58507C6.30666 2.59997 5.73649 3.97647 5.73649 5.41176C5.73649 6.84705 6.30666 8.22356 7.32156 9.23846C8.33646 10.2534 9.71297 10.8235 11.1483 10.8235ZM11.1483 2.70588C11.8659 2.70588 12.5542 2.99096 13.0616 3.49842C13.5691 4.00587 13.8541 4.69412 13.8541 5.41176C13.8541 6.12941 13.5691 6.81766 13.0616 7.32511C12.5542 7.83256 11.8659 8.11764 11.1483 8.11765C10.4306 8.11764 9.74236 7.83256 9.23491 7.32511C8.72746 6.81766 8.44237 6.12941 8.44237 5.41176C8.44237 4.69412 8.72746 4.00587 9.23491 3.49842C9.74236 2.99096 10.4306 2.70588 11.1483 2.70588Z" fill="#189EA0"/>
</g>
</g>
<defs>
<clipPath id="clip0_116_141">
<rect width="23" height="21.6471" fill="white"/>
</clipPath>
</defs>
</svg>
